<?xml version="1.0" encoding="UTF-8"?>
<svg width="683px" height="694px" viewBox="0 0 683 694" version="1.1" xmlns="http://www.w3.org/2000/svg" xmlns:xlink="http://www.w3.org/1999/xlink">
    <title>Artboard</title>
    <g id="Artboard" stroke="none" stroke-width="1" fill="none" fill-rule="evenodd">
        <g id="database-svgrepo-com" fill-rule="nonzero">
            <g id="Group">
                <path d="M599.74621,99.0190833 L599.74621,99.0190833 C590.698341,43.7911896 461.441306,0 303.245943,0 C145.05058,0 15.7935438,43.7911896 6.74567505,99.0190833 L6.74567505,99.0190833 L6.18869271,99.0190833 L6.18869271,105.207776 L6.18869271,247.547708 L6.18869271,253.736401 L6.18869271,259.925094 L6.18869271,396.076333 L6.18869271,402.265026 L6.18869271,408.453719 L6.18869271,556.982343 L6.74567505,556.982343 C15.7935438,612.19786 145.062957,656.001427 303.245943,656.001427 C461.428928,656.001427 590.698341,612.19786 599.74621,556.982343 L600.303192,556.982343 L600.303192,408.453719 L600.303192,402.265026 L600.303192,396.076333 L600.303192,259.925094 L600.303192,253.736401 L600.303192,247.547708 L600.303192,105.207776 L600.303192,99.0190833 L599.74621,99.0190833 Z" id="Path" fill="#545E73"></path>
                <g transform="translate(0.000000, 392.363118)" fill="#38454F" id="Path">
                    <path d="M303.245943,115.109684 C139.183699,115.109684 6.18869271,68.0013554 6.18869271,9.90190833 L6.18869271,164.619226 L6.74567505,164.619226 C15.7935438,219.834742 145.062957,263.638309 303.245943,263.638309 C461.428928,263.638309 590.698341,219.834742 599.74621,164.619226 L600.303192,164.619226 L600.303192,9.90190833 C600.303192,68.0013554 467.308186,115.109684 303.245943,115.109684 Z"></path>
                    <path d="M6.18869271,3.71321562 L6.18869271,9.90190833 C6.18869271,7.82250758 6.41148564,5.7678616 6.74567505,3.71321562 L6.18869271,3.71321562 Z"></path>
                    <path d="M599.74621,3.71321562 C600.0804,5.7678616 600.303192,7.82250758 600.303192,9.90190833 L600.303192,3.71321562 L599.74621,3.71321562 Z"></path>
                </g>
                <g transform="translate(0.000000, 243.834493)" fill="#556080" id="Path">
                    <path d="M303.245943,115.109684 C139.183699,115.109684 6.18869271,68.0013554 6.18869271,9.90190833 L6.18869271,164.619226 L6.74567505,164.619226 C15.7935438,219.834742 145.062957,263.638309 303.245943,263.638309 C461.428928,263.638309 590.698341,219.834742 599.74621,164.619226 L600.303192,164.619226 L600.303192,9.90190833 C600.303192,68.0013554 467.308186,115.109684 303.245943,115.109684 Z"></path>
                    <path d="M6.18869271,3.71321562 L6.18869271,9.90190833 C6.18869271,7.82250758 6.41148564,5.7678616 6.74567505,3.71321562 L6.18869271,3.71321562 Z"></path>
                    <path d="M599.74621,3.71321562 C600.0804,5.7678616 600.303192,7.82250758 600.303192,9.90190833 L600.303192,3.71321562 L599.74621,3.71321562 Z"></path>
                </g>
                <ellipse id="Oval" fill="#91BAE1" cx="303.245943" cy="105.207776" rx="297.05725" ry="105.207776"></ellipse>
                <g transform="translate(0.000000, 95.305868)" fill="#8697CB" id="Path">
                    <path d="M303.245943,115.109684 C139.183699,115.109684 6.18869271,68.0013554 6.18869271,9.90190833 L6.18869271,164.619226 L6.74567505,164.619226 C15.7935438,219.834742 145.062957,263.638309 303.245943,263.638309 C461.428928,263.638309 590.698341,219.834742 599.74621,164.619226 L600.303192,164.619226 L600.303192,9.90190833 C600.303192,68.0013554 467.308186,115.109684 303.245943,115.109684 Z"></path>
                    <path d="M6.18869271,3.71321562 L6.18869271,9.90190833 C6.18869271,7.82250758 6.41148564,5.7678616 6.74567505,3.71321562 L6.18869271,3.71321562 Z"></path>
                    <path d="M599.74621,3.71321562 C600.0804,5.7678616 600.303192,7.82250758 600.303192,9.90190833 L600.303192,3.71321562 L599.74621,3.71321562 Z"></path>
                </g>
            </g>
            <g id="Group" transform="translate(167.190119, 198.257357)">
                <circle id="Oval" fill="#26B999" cx="247.809881" cy="247.742643" r="247"></circle>
                <path d="M383.002011,128.439296 C373.65725,121.934007 360.882655,124.239679 354.413205,133.585885 L239.48292,299.100203 L158.378614,232.359231 C149.629453,225.133419 136.670016,226.430359 129.481739,235.220734 C122.272923,244.011109 123.546275,256.980515 132.336512,264.18574 L230.63107,345.06954 C234.327898,348.095734 238.928395,349.742643 243.652121,349.742643 C244.576328,349.742643 245.521073,349.680884 246.465818,349.557366 C252.134288,348.754498 257.227696,345.645958 260.513765,340.931682 L388.136495,157.116092 C394.605944,147.769886 392.305696,134.944585 383.002011,128.439296 Z" id="Path" fill="#FFFFFF"></path>
            </g>
        </g>
    </g>
</svg>