<?xml version="1.0" encoding="UTF-8"?>
<svg width="683px" height="694px" viewBox="0 0 683 694" version="1.1" xmlns="http://www.w3.org/2000/svg" xmlns:xlink="http://www.w3.org/1999/xlink">
    <title>Artboard Copy 2</title>
    <g id="Artboard-Copy-2" stroke="none" stroke-width="1" fill="none" fill-rule="evenodd">
        <g id="database-svgrepo-com" fill-rule="nonzero">
            <g id="Group">
                <path d="M599.74621,99.0190833 L599.74621,99.0190833 C590.698341,43.7911896 461.441306,0 303.245943,0 C145.05058,0 15.7935438,43.7911896 6.74567505,99.0190833 L6.74567505,99.0190833 L6.18869271,99.0190833 L6.18869271,105.207776 L6.18869271,247.547708 L6.18869271,253.736401 L6.18869271,259.925094 L6.18869271,396.076333 L6.18869271,402.265026 L6.18869271,408.453719 L6.18869271,556.982343 L6.74567505,556.982343 C15.7935438,612.19786 145.062957,656.001427 303.245943,656.001427 C461.428928,656.001427 590.698341,612.19786 599.74621,556.982343 L600.303192,556.982343 L600.303192,408.453719 L600.303192,402.265026 L600.303192,396.076333 L600.303192,259.925094 L600.303192,253.736401 L600.303192,247.547708 L600.303192,105.207776 L600.303192,99.0190833 L599.74621,99.0190833 Z" id="Path" fill="#545E73"></path>
                <g transform="translate(0.000000, 392.363118)" fill="#38454F" id="Path">
                    <path d="M303.245943,115.109684 C139.183699,115.109684 6.18869271,68.0013554 6.18869271,9.90190833 L6.18869271,164.619226 L6.74567505,164.619226 C15.7935438,219.834742 145.062957,263.638309 303.245943,263.638309 C461.428928,263.638309 590.698341,219.834742 599.74621,164.619226 L600.303192,164.619226 L600.303192,9.90190833 C600.303192,68.0013554 467.308186,115.109684 303.245943,115.109684 Z"></path>
                    <path d="M6.18869271,3.71321562 L6.18869271,9.90190833 C6.18869271,7.82250758 6.41148564,5.7678616 6.74567505,3.71321562 L6.18869271,3.71321562 Z"></path>
                    <path d="M599.74621,3.71321562 C600.0804,5.7678616 600.303192,7.82250758 600.303192,9.90190833 L600.303192,3.71321562 L599.74621,3.71321562 Z"></path>
                </g>
                <g transform="translate(0.000000, 243.834493)" fill="#556080" id="Path">
                    <path d="M303.245943,115.109684 C139.183699,115.109684 6.18869271,68.0013554 6.18869271,9.90190833 L6.18869271,164.619226 L6.74567505,164.619226 C15.7935438,219.834742 145.062957,263.638309 303.245943,263.638309 C461.428928,263.638309 590.698341,219.834742 599.74621,164.619226 L600.303192,164.619226 L600.303192,9.90190833 C600.303192,68.0013554 467.308186,115.109684 303.245943,115.109684 Z"></path>
                    <path d="M6.18869271,3.71321562 L6.18869271,9.90190833 C6.18869271,7.82250758 6.41148564,5.7678616 6.74567505,3.71321562 L6.18869271,3.71321562 Z"></path>
                    <path d="M599.74621,3.71321562 C600.0804,5.7678616 600.303192,7.82250758 600.303192,9.90190833 L600.303192,3.71321562 L599.74621,3.71321562 Z"></path>
                </g>
                <ellipse id="Oval" fill="#91BAE1" cx="303.245943" cy="105.207776" rx="297.05725" ry="105.207776"></ellipse>
                <g transform="translate(0.000000, 95.305868)" fill="#8697CB" id="Path">
                    <path d="M303.245943,115.109684 C139.183699,115.109684 6.18869271,68.0013554 6.18869271,9.90190833 L6.18869271,164.619226 L6.74567505,164.619226 C15.7935438,219.834742 145.062957,263.638309 303.245943,263.638309 C461.428928,263.638309 590.698341,219.834742 599.74621,164.619226 L600.303192,164.619226 L600.303192,9.90190833 C600.303192,68.0013554 467.308186,115.109684 303.245943,115.109684 Z"></path>
                    <path d="M6.18869271,3.71321562 L6.18869271,9.90190833 C6.18869271,7.82250758 6.41148564,5.7678616 6.74567505,3.71321562 L6.18869271,3.71321562 Z"></path>
                    <path d="M599.74621,3.71321562 C600.0804,5.7678616 600.303192,7.82250758 600.303192,9.90190833 L600.303192,3.71321562 L599.74621,3.71321562 Z"></path>
                </g>
            </g>
            <g id="Group" transform="translate(167.190119, 198.257357)" fill="#B92626">
                <circle id="Oval" cx="247.809881" cy="247.742643" r="247"></circle>
            </g>
        </g>
        <g id="Group" transform="translate(262.000000, 291.000000)" fill="#FFFFFF" fill-rule="nonzero">
            <path d="M266.4,311.6 C278.9,324.1 299.2,324.1 311.7,311.6 C324.2,299.1 324.2,278.8 311.7,266.3 L206.3,161 L311.6,55.6 C324.1,43.1 324.1,22.8 311.6,10.3 C299.1,-2.2 278.8,-2.2 266.3,10.3 L161,115.7 L55.6,10.4 C43.1,-2.1 22.8,-2.1 10.3,10.4 C-2.2,22.9 -2.2,43.2 10.3,55.7 L115.7,161 L10.4,266.4 C-2.1,278.9 -2.1,299.2 10.4,311.7 C22.9,324.2 43.2,324.2 55.7,311.7 L161,206.3 L266.4,311.6 Z" id="Path"></path>
        </g>
    </g>
</svg>