<?xml version="1.0" encoding="UTF-8"?>
<svg width="493px" height="493px" viewBox="0 0 493 493" version="1.1" xmlns="http://www.w3.org/2000/svg" xmlns:xlink="http://www.w3.org/1999/xlink">
    <title>Shape</title>
    <g id="Page-1" stroke="none" stroke-width="1" fill="none" fill-rule="evenodd">
        <g id="Artboard" fill="#5DD157" fill-rule="nonzero">
            <g id="watch-start">
                <path d="M246.5,493 C382.638191,493 493,382.638191 493,246.5 C493,110.361809 382.638191,0 246.5,0 C110.361809,0 0,110.361809 0,246.5 C0,382.638191 110.361809,493 246.5,493 Z M355.306641,201.244141 L232.056641,324.494141 C223.005469,333.545312 208.369531,333.545312 199.414648,324.494141 L137.789648,262.869141 C128.738477,253.817969 128.738477,239.182031 137.789648,230.227148 C146.84082,221.272266 161.476758,221.175977 170.431641,230.227148 L215.6875,275.483008 L322.568359,168.505859 C331.619531,159.454687 346.255469,159.454687 355.210352,168.505859 C364.165234,177.557031 364.261523,192.192969 355.210352,201.147852 L355.306641,201.244141 Z" id="Shape"></path>
            </g>
        </g>
    </g>
</svg>